<svg width="19" height="19" viewBox="0 0 19 19" fill="none" xmlns="http://www.w3.org/2000/svg">
<path d="M9.3275 18.6667C9.0425 18.6667 8.80556 18.5708 8.61667 18.3792C8.42778 18.1875 8.33333 17.95 8.33333 17.6667V10.3333H1C0.716667 10.3333 0.479167 10.2369 0.2875 10.0442C0.0958333 9.85137 0 9.61248 0 9.3275C0 9.0425 0.0958333 8.80556 0.2875 8.61667C0.479167 8.42778 0.716667 8.33333 1 8.33333H8.33333V1C8.33333 0.716667 8.42972 0.479167 8.6225 0.2875C8.8153 0.0958333 9.05419 0 9.33917 0C9.62417 0 9.86111 0.0958333 10.05 0.2875C10.2389 0.479167 10.3333 0.716667 10.3333 1V8.33333H17.6667C17.95 8.33333 18.1875 8.42972 18.3792 8.6225C18.5708 8.8153 18.6667 9.05419 18.6667 9.33917C18.6667 9.62417 18.5708 9.86111 18.3792 10.05C18.1875 10.2389 17.95 10.3333 17.6667 10.3333H10.3333V17.6667C10.3333 17.95 10.2369 18.1875 10.0442 18.3792C9.85137 18.5708 9.61248 18.6667 9.3275 18.6667Z" fill="#011021"/>
</svg>
