<svg width="77" height="40" viewBox="0 0 77 40" fill="none" xmlns="http://www.w3.org/2000/svg">
<path d="M54.96 27.2C53.72 27.2 52.6667 26.9867 51.8 26.56C50.9467 26.12 50.2933 25.5 49.84 24.7C49.3867 23.8867 49.1333 22.9133 49.08 21.78C49.0667 21.2333 49.06 20.6467 49.06 20.02C49.06 19.3933 49.0667 18.7933 49.08 18.22C49.1333 17.1 49.3867 16.1333 49.84 15.32C50.3067 14.5067 50.9667 13.8867 51.82 13.46C52.6867 13.02 53.7333 12.8 54.96 12.8C55.8667 12.8 56.68 12.92 57.4 13.16C58.12 13.4 58.7333 13.7333 59.24 14.16C59.7467 14.5733 60.14 15.06 60.42 15.62C60.7 16.18 60.8467 16.7867 60.86 17.44C60.8733 17.56 60.8333 17.66 60.74 17.74C60.66 17.82 60.56 17.86 60.44 17.86H58.54C58.3933 17.86 58.2733 17.8267 58.18 17.76C58.0867 17.68 58.02 17.5533 57.98 17.38C57.7667 16.5 57.4 15.9 56.88 15.58C56.36 15.26 55.7133 15.1 54.94 15.1C54.0467 15.1 53.3333 15.3533 52.8 15.86C52.2667 16.3533 51.98 17.1733 51.94 18.32C51.9 19.4133 51.9 20.5333 51.94 21.68C51.98 22.8267 52.2667 23.6533 52.8 24.16C53.3333 24.6533 54.0467 24.9 54.94 24.9C55.7133 24.9 56.36 24.74 56.88 24.42C57.4 24.0867 57.7667 23.4867 57.98 22.62C58.02 22.4333 58.0867 22.3067 58.18 22.24C58.2733 22.1733 58.3933 22.14 58.54 22.14H60.44C60.56 22.14 60.66 22.18 60.74 22.26C60.8333 22.34 60.8733 22.44 60.86 22.56C60.8467 23.2133 60.7 23.82 60.42 24.38C60.14 24.94 59.7467 25.4333 59.24 25.86C58.7333 26.2733 58.12 26.6 57.4 26.84C56.68 27.08 55.8667 27.2 54.96 27.2ZM64.7119 27C64.5785 27 64.4652 26.9533 64.3719 26.86C64.2785 26.7667 64.2319 26.6533 64.2319 26.52V13.5C64.2319 13.3533 64.2785 13.2333 64.3719 13.14C64.4652 13.0467 64.5785 13 64.7119 13H66.2519C66.4385 13 66.5719 13.0467 66.6519 13.14C66.7452 13.22 66.8052 13.28 66.8319 13.32L72.5919 22.28V13.5C72.5919 13.3533 72.6319 13.2333 72.7119 13.14C72.8052 13.0467 72.9252 13 73.0719 13H74.7519C74.8985 13 75.0185 13.0467 75.1119 13.14C75.2052 13.2333 75.2519 13.3533 75.2519 13.5V26.5C75.2519 26.6467 75.2052 26.7667 75.1119 26.86C75.0185 26.9533 74.9052 27 74.7719 27H73.2119C73.0252 27 72.8919 26.9533 72.8119 26.86C72.7319 26.7667 72.6719 26.7067 72.6319 26.68L66.8919 17.92V26.52C66.8919 26.6533 66.8452 26.7667 66.7519 26.86C66.6585 26.9533 66.5385 27 66.3919 27H64.7119Z" fill="#0E0F0F"/>
<path d="M27.4583 29.125C27.2083 29.375 26.9167 29.4931 26.5833 29.4792C26.25 29.4653 25.9583 29.3333 25.7083 29.0833C25.4583 28.8333 25.3333 28.5347 25.3333 28.1875C25.3333 27.8403 25.4583 27.5417 25.7083 27.2917L33.0833 19.9167L25.75 12.5833C25.5 12.3333 25.3819 12.0347 25.3958 11.6875C25.4097 11.3403 25.5417 11.0417 25.7917 10.7917C26.0417 10.5417 26.3403 10.4167 26.6875 10.4167C27.0347 10.4167 27.3333 10.5417 27.5833 10.7917L35.7917 19.0417C36.0417 19.2917 36.1667 19.5833 36.1667 19.9167C36.1667 20.25 36.0417 20.5417 35.7917 20.7917L27.4583 29.125ZM12.4583 29L4.20833 20.7917C3.95833 20.5417 3.83333 20.25 3.83333 19.9167C3.83333 19.5833 3.95833 19.2917 4.20833 19.0417L12.5417 10.7083C12.7917 10.4583 13.0903 10.3333 13.4375 10.3333C13.7847 10.3333 14.0833 10.4583 14.3333 10.7083C14.5833 10.9583 14.7083 11.2569 14.7083 11.6042C14.7083 11.9514 14.5833 12.25 14.3333 12.5L6.91667 19.9167L14.25 27.25C14.5 27.5 14.625 27.7917 14.625 28.125C14.625 28.4583 14.5 28.75 14.25 29C14 29.25 13.7014 29.375 13.3542 29.375C13.0069 29.375 12.7083 29.25 12.4583 29Z" fill="#0E0F0F"/>
</svg>
