<svg width="40" height="40" viewBox="0 0 40 40" fill="none" xmlns="http://www.w3.org/2000/svg">
<path d="M27.4583 29.125C27.2083 29.375 26.9167 29.4931 26.5833 29.4792C26.25 29.4653 25.9583 29.3333 25.7083 29.0833C25.4583 28.8333 25.3333 28.5347 25.3333 28.1875C25.3333 27.8403 25.4583 27.5417 25.7083 27.2917L33.0833 19.9167L25.75 12.5833C25.5 12.3333 25.3819 12.0347 25.3958 11.6875C25.4097 11.3403 25.5417 11.0417 25.7917 10.7917C26.0417 10.5417 26.3403 10.4167 26.6875 10.4167C27.0347 10.4167 27.3333 10.5417 27.5833 10.7917L35.7917 19.0417C36.0417 19.2917 36.1667 19.5833 36.1667 19.9167C36.1667 20.25 36.0417 20.5417 35.7917 20.7917L27.4583 29.125ZM12.4583 29L4.20833 20.7917C3.95833 20.5417 3.83333 20.25 3.83333 19.9167C3.83333 19.5833 3.95833 19.2917 4.20833 19.0417L12.5417 10.7083C12.7917 10.4583 13.0903 10.3333 13.4375 10.3333C13.7847 10.3333 14.0833 10.4583 14.3333 10.7083C14.5833 10.9583 14.7083 11.2569 14.7083 11.6042C14.7083 11.9514 14.5833 12.25 14.3333 12.5L6.91667 19.9167L14.25 27.25C14.5 27.5 14.625 27.7917 14.625 28.125C14.625 28.4583 14.5 28.75 14.25 29C14 29.25 13.7014 29.375 13.3542 29.375C13.0069 29.375 12.7083 29.25 12.4583 29Z" fill="#0E0F0F"/>
</svg>
